Coordinates
version=1
nRows=14
nColumns=40
inDegrees=yes

Units are S.I. units (second, meters, Newtons, ...)
If the header above contains a line with 'inDegrees', this indicates whether rotational values are in degrees (yes) or radians (no).

endheader
time	pelvis_tilt	pelvis_list	pelvis_rotation	pelvis_tx	pelvis_ty	pelvis_tz	hip_flexion_r	hip_adduction_r	hip_rotation_r	knee_angle_r	knee_angle_r_beta	ankle_angle_r	subtalar_angle_r	mtp_angle_r	hip_flexion_l	hip_adduction_l	hip_rotation_l	knee_angle_l	knee_angle_l_beta	ankle_angle_l	subtalar_angle_l	mtp_angle_l	lumbar_extension	lumbar_bending	lumbar_rotation	arm_flex_r	arm_add_r	arm_rot_r	elbow_flex_r	pro_sup_r	wrist_flex_r	wrist_dev_r	arm_flex_l	arm_add_l	arm_rot_l	elbow_flex_l	pro_sup_l	wrist_flex_l	wrist_dev_l
      4.19000000	    -41.37322349	     -3.39012156	      9.34624050	      0.06318429	      0.64686629	     -1.15862419	     94.98902854	    -47.11797956	     -7.93208686	     75.40144748	      1.31600352	     15.98005160	     -4.68049836	      0.00000000	     99.02580492	    -31.42035345	     -9.51451067	     69.43186535	      1.21181466	      8.81767371	      9.17436028	      0.00000000	      0.00000000	      0.00000000	      0.00000000	     44.34651199	    -15.25555904	     44.34651199	     75.05285800	     44.99903911	      0.00000000	      0.00000000	     44.34651199	    -15.25555904	     44.34651199	     75.05285800	     44.99903911	      0.00000000	      0.00000000
      4.19500000	    -40.54212742	     -3.25774878	      9.02262587	      0.06421159	      0.64744701	     -1.15748034	     94.11308491	    -46.77838129	     -8.09727707	     75.57083318	      1.31895986	     15.97166133	     -5.22440640	      0.00000000	     98.25410381	    -32.17965631	     -9.71490285	     69.66971131	      1.21596585	      8.87922219	      9.62983754	      0.00000000	      0.00000000	      0.00000000	      0.00000000	     44.36127434	    -15.24628569	     44.36127434	     75.04935017	     44.99918446	      0.00000000	      0.00000000	     44.36127434	    -15.24628569	     44.36127434	     75.04935017	     44.99918446	      0.00000000	      0.00000000
      4.20000000	    -41.35339762	     -3.48835331	      9.31737159	      0.06294404	      0.64364351	     -1.15851877	     95.47126882	    -47.26260340	     -7.67704868	     76.03196145	      1.32700806	     16.31091764	     -4.44718702	      0.00000000	     99.61418121	    -31.66626525	     -9.23262738	     70.06776278	      1.22291316	      9.01970121	      9.33960259	      0.00000000	      0.00000000	      0.00000000	      0.00000000	     44.37379089	    -15.23852006	     44.37379089	     75.04649322	     44.99929371	      0.00000000	      0.00000000	     44.37379089	    -15.23852006	     44.37379089	     75.04649322	     44.99929371	      0.00000000	      0.00000000
      4.20500000	    -41.33455826	     -3.54143608	      9.25728586	      0.06288001	      0.64210008	     -1.15833277	     95.67491069	    -47.27235813	     -7.58089999	     76.33619228	      1.33231789	     16.44344198	     -4.39086601	      0.00000000	     99.90184120	    -31.85771605	     -9.08265870	     70.38613916	      1.22846988	      9.15946487	      9.53930324	      0.00000000	      0.00000000	      0.00000000	      0.00000000	     44.38839015	    -15.22958927	     44.38839015	     75.04331202	     44.99940389	      0.00000000	      0.00000000	     44.38839015	    -15.22958927	     44.38839015	     75.04331202	     44.99940389	      0.00000000	      0.00000000
      4.21000000	    -41.43933714	     -3.52801764	      9.25506606	      0.06259405	      0.64028181	     -1.15824771	     96.16397613	    -47.33468255	     -7.27872060	     76.65524986	      1.33788650	     16.50250666	     -4.40515727	      0.00000000	    100.24887313	    -31.94215013	     -9.01818039	     70.67673182	      1.23354167	      9.24041133	      9.57141788	      0.00000000	      0.00000000	      0.00000000	      0.00000000	     44.40452931	    -15.21985237	     44.40452931	     75.03995072	     44.99950994	      0.00000000	      0.00000000	     44.40452931	    -15.21985237	     44.40452931	     75.03995072	     44.99950994	      0.00000000	      0.00000000
      4.21500000	    -41.37745762	     -3.56622115	      9.18181563	      0.06261474	      0.63883006	     -1.15802238	     96.31748619	    -47.33639151	     -7.18014910	     76.96686093	      1.34332514	     16.72025671	     -4.24651869	      0.00000000	    100.48694917	    -32.16332712	     -8.89479059	     71.00490854	      1.23926944	      9.35711974	      9.73745364	      0.00000000	      0.00000000	      0.00000000	      0.00000000	     44.41969595	    -15.21086286	     44.41969595	     75.03697035	     44.99959308	      0.00000000	      0.00000000	     44.41969595	    -15.21086286	     44.41969595	     75.03697035	     44.99959308	      0.00000000	      0.00000000
      4.22000000	    -41.56961270	     -3.61452332	      9.22740928	      0.06220306	      0.63686059	     -1.15809915	     96.87277640	    -47.46187446	     -6.94274248	     77.27824427	      1.34875980	     16.68972976	     -4.33162756	      0.00000000	    100.96620757	    -32.14656112	     -8.75107760	     71.27292961	      1.24394729	      9.39885064	      9.67422343	      0.00000000	      0.00000000	      0.00000000	      0.00000000	     44.43614931	    -15.20126142	     44.43614931	     75.03389731	     44.99967029	      0.00000000	      0.00000000	     44.43614931	    -15.20126142	     44.43614931	     75.03389731	     44.99967029	      0.00000000	      0.00000000
      4.22500000	    -41.61526946	     -3.64538821	      9.20252707	      0.06206614	      0.63521761	     -1.15795146	     97.20444123	    -47.50046708	     -6.75985435	     77.58759408	      1.35415898	     16.80752109	     -4.29210101	      0.00000000	    101.28691311	    -32.27102782	     -8.62805716	     71.56342512	      1.24901739	      9.49308637	      9.77913410	      0.00000000	      0.00000000	      0.00000000	      0.00000000	     44.45215125	    -15.19209143	     44.45215125	     75.03108133	     44.99973268	      0.00000000	      0.00000000	     44.45215125	    -15.19209143	     44.45215125	     75.03108133	     44.99973268	      0.00000000	      0.00000000
      4.23000000	    -41.61734250	     -3.67362618	      9.17736991	      0.06199693	      0.63365781	     -1.15782443	     97.47274608	    -47.54551555	     -6.59270307	     77.89473248	      1.35951955	     16.97861497	     -4.18558407	      0.00000000	    101.56798486	    -32.41513329	     -8.52500801	     71.86811674	      1.25433526	      9.55795819	      9.87156800	      0.00000000	      0.00000000	      0.00000000	      0.00000000	     44.46689432	    -15.18379277	     44.46689432	     75.02863447	     44.99978066	      0.00000000	      0.00000000	     44.46689432	    -15.18379277	     44.46689432	     75.02863447	     44.99978066	      0.00000000	      0.00000000
      4.23500000	    -41.51442931	     -3.69361580	      9.12084049	      0.06212904	      0.63236453	     -1.15752766	     97.57514444	    -47.55572274	     -6.49581976	     78.20225550	      1.36488684	     17.17035418	     -4.05846838	      0.00000000	    101.71589604	    -32.62781487	     -8.42201852	     72.14881341	      1.25923435	      9.75491132	     10.11934113	      0.00000000	      0.00000000	      0.00000000	      0.00000000	     44.48090753	    -15.17603436	     44.48090753	     75.02643112	     44.99981927	      0.00000000	      0.00000000	     44.48090753	    -15.17603436	     44.48090753	     75.02643112	     44.99981927	      0.00000000	      0.00000000
      4.24000000	    -41.80682904	     -3.72022441	      9.12806650	      0.06157353	      0.63012039	     -1.15755595	     98.31476858	    -47.61348337	     -6.14648621	     78.51616909	      1.37036567	     17.10947160	     -4.23997361	      0.00000000	    102.31253485	    -32.63366327	     -8.28098586	     72.45229564	      1.26453111	      9.75364120	     10.01337797	      0.00000000	      0.00000000	      0.00000000	      0.00000000	     44.49590155	    -15.16786899	     44.49590155	     75.02419757	     44.99985424	      0.00000000	      0.00000000	     44.49590155	    -15.16786899	     44.49590155	     75.02419757	     44.99985424	      0.00000000	      0.00000000
      4.24500000	    -41.78291966	     -3.73561164	      9.12397866	      0.06159241	      0.62868743	     -1.15742044	     98.53920238	    -47.68016630	     -5.98715282	     78.81407929	      1.37556518	     17.27275046	     -4.10317544	      0.00000000	    102.53019270	    -32.75869740	     -8.19722324	     72.72403333	      1.26927383	      9.83525610	     10.12230442	      0.00000000	      0.00000000	      0.00000000	      0.00000000	     44.51085772	    -15.15987801	     44.51085772	     75.02210473	     44.99988294	      0.00000000	      0.00000000	     44.51085772	    -15.15987801	     44.51085772	     75.02210473	     44.99988294	      0.00000000	      0.00000000
      4.25000000	    -41.82671591	     -3.75908342	      9.08282913	      0.06147633	      0.62702386	     -1.15722689	     98.88768234	    -47.70709376	     -5.79151399	     79.13722504	      1.38120514	     17.37775718	     -4.01574542	      0.00000000	    102.85096700	    -32.89706821	     -8.06765211	     73.01083499	      1.27427946	      9.92912995	     10.19650651	      0.00000000	      0.00000000	      0.00000000	      0.00000000	     44.52021864	    -15.15494904	     44.52021864	     75.02085550	     44.99989850	      0.00000000	      0.00000000	     44.52021864	    -15.15494904	     44.52021864	     75.02085550	     44.99989850	      0.00000000	      0.00000000
      4.25500000	    -41.85952984	     -3.77277832	      9.06397841	      0.06142128	      0.62538942	     -1.15706949	     99.20499079	    -47.74912774	     -5.59825549	     79.43880378	      1.38646868	     17.51594566	     -3.95157989	      0.00000000	    103.14735073	    -33.02879304	     -7.96561009	     73.30248587	      1.27936973	     10.01509632	     10.31233223	      0.00000000	      0.00000000	      0.00000000	      0.00000000	     44.52790344	    -15.15094503	     44.52790344	     75.01986461	     44.99990999	      0.00000000	      0.00000000	     44.52790344	    -15.15094503	     44.52790344	     75.01986461	     44.99990999	      0.00000000	      0.00000000
